<svg xmlns="http://www.w3.org/2000/svg" viewBox="0 0 1263.54839 340.32258"><defs><style>.a{fill:#280;}.b{fill:none;}</style></defs><title>clover-logo-freelogovectors.net</title><path class="a" d="M534.12529,451.95254c-23.02258,27.10264-49.7592,37.87194-76.86549,37.87194-51.24394,0-92.09045-36.76134-92.09045-85.0329,0-47.90111,38.99063-85.0335,90.23308-85.0335,27.10778,0,53.84219,10.76843,76.8648,37.87474L498.10485,381.769c-12.25331-17.45053-26.36324-24.50732-42.70242-24.50732a47.70284,47.70284,0,0,0-47.90186,47.52993c0,26.73366,23.39381,47.5292,49.75923,47.5292,16.33772,0,30.82029-7.05092,43.4455-23.02261Z" transform="translate(-8.22581 -229.83871)"/><path class="a" d="M553.0481,253.28908H595.752v233.197H553.0481Z" transform="translate(-8.22581 -229.83871)"/><path class="a" d="M708.62769,319.75808c51.24244,0,92.09046,37.13239,92.09046,85.0335,0,47.90332-40.848,85.0329-92.09046,85.0329-51.241,0-92.4587-37.12958-92.4587-85.0329C616.169,356.89047,657.38666,319.75808,708.62769,319.75808Zm0,134.04742c26.73514,0,51.24244-21.5379,51.24244-49.01392,0-27.47749-24.5073-49.01465-51.24244-49.01465-27.10635,0-51.241,21.53716-51.241,49.01465C657.38666,432.2676,681.52134,453.8055,708.62769,453.8055Z" transform="translate(-8.22581 -229.83871)"/><path class="a" d="M793.94007,323.09942h50.13112l40.47753,87.26424,43.81521-87.26424h46.41936L884.54872,496.513Z" transform="translate(-8.22581 -229.83871)"/><path class="a" d="M1122.88792,467.91836c-16.33618,13.73874-38.98833,21.90612-62.74826,21.90612-51.24607,0-92.46453-37.12958-92.46453-85.0329,0-47.90111,37.5067-85.0335,88.74549-85.0335,51.24607,0,84.65954,37.13239,84.65954,85.0335v12.254H1010.37534c5.94177,21.53643,26.73809,36.75989,49.76432,36.75989,14.10628,0,26.364-4.45488,37.4993-15.96582Zm-26.73071-85.77821c-6.31584-14.85229-20.42213-26.36322-39.73659-26.36322a46.27411,46.27411,0,0,0-42.32613,26.36322Z" transform="translate(-8.22581 -229.83871)"/><path class="a" d="M1162.02311,394.76609c0-38.98916,29.709-71.66667,77.97689-71.66667v38.24592c-20.78893,0-35.64348,12.62814-35.64348,38.62091v86.51984h-42.33341Z" transform="translate(-8.22581 -229.83871)"/><path class="a" d="M172.22982,329.82083a66.114,66.114,0,1,0-66.11161,66.11454h66.11161Z" transform="translate(-8.22581 -229.83871)"/><path class="a" d="M190.77555,329.82156a66.11418,66.11418,0,1,1,66.11161,66.11381H190.77555Z" transform="translate(-8.22581 -229.83871)"/><path class="a" d="M190.77555,480.59711a66.11417,66.11417,0,1,0,66.11161-66.11454H190.77555Z" transform="translate(-8.22581 -229.83871)"/><path class="a" d="M172.22835,480.59711a66.11418,66.11418,0,1,1-66.11168-66.11454h66.11168Zm-66.13413,47.47052a47.572,47.572,0,0,0,47.58767-47.44924V433.0393H106.1546a47.51422,47.51422,0,1,0-.06038,95.02833Z" transform="translate(-8.22581 -229.83871)"/><rect class="b" width="1263.54839" height="340.32258"/></svg>